HIERARCHY
ROOT Hips
{
	OFFSET 0.000000 103.266502 0.000000
	CHANNELS 6 Xposition Yposition Zposition Xrotation Yrotation Zrotation 
	JOINT Spine
	{
		OFFSET -0.002400 12.777504 0.315300
		CHANNELS 3 Xrotation Yrotation Zrotation
		JOINT Spine1
		{
			OFFSET -0.002067 5.816869 0.032633
			CHANNELS 3 Xrotation Yrotation Zrotation
			JOINT Spine1_split
			{
				OFFSET -0.002067 5.816869 0.032633
				CHANNELS 3 Xrotation Yrotation Zrotation
				JOINT Spine2
				{
					OFFSET -0.002067 5.816869 0.032633
					CHANNELS 3 Xrotation Yrotation Zrotation
					JOINT Neck
					{
						OFFSET -0.003700 21.199493 -0.826900
						CHANNELS 3 Xrotation Yrotation Zrotation
						JOINT Head
						{
							OFFSET 0.000000 20.442200 4.834800
							CHANNELS 3 Xrotation Yrotation Zrotation
							JOINT HeadTop_End
							{
								OFFSET 0.000000 34.668396 4.968400
								CHANNELS 3 Xrotation Yrotation Zrotation
								End Site
								{
									OFFSET 0.000000 0.000000 0.000000
								}
							}
						}
					}
					JOINT LeftShoulder
					{
						OFFSET 3.288150 8.794197 -1.372250
						CHANNELS 3 Xrotation Yrotation Zrotation
						JOINT LeftShoulder_split
						{
							OFFSET 3.288150 8.794197 -1.372250
							CHANNELS 3 Xrotation Yrotation Zrotation
							JOINT LeftArm
							{
								OFFSET 11.953299 -2.279007 -0.146200
								CHANNELS 3 Xrotation Yrotation Zrotation
								JOINT LeftForeArm
								{
									OFFSET 18.448900 0.000000 0.000000
									CHANNELS 3 Xrotation Yrotation Zrotation
									JOINT LeftHand
									{
										OFFSET 29.527798 0.000000 0.000000
										CHANNELS 3 Xrotation Yrotation Zrotation
										JOINT LeftHandThumb1
										{
											OFFSET 10.739754 -2.369614 9.225399
											CHANNELS 3 Xrotation Yrotation Zrotation
											JOINT LeftHandThumb2
											{
												OFFSET 4.926170 -2.844131 2.844125
												CHANNELS 3 Xrotation Yrotation Zrotation
												JOINT LeftHandThumb3
												{
													OFFSET 4.614891 -2.664413 2.664409
													CHANNELS 3 Xrotation Yrotation Zrotation
													JOINT LeftHandThumb4
													{
														OFFSET 4.432465 -2.559082 2.559083
														CHANNELS 3 Xrotation Yrotation Zrotation
														End Site
														{
															OFFSET 0.000000 0.000000 0.000000
														}
													}
												}
											}
										}
										JOINT LeftHandIndex1
										{
											OFFSET 26.467674 0.187653 6.405298
											CHANNELS 3 Xrotation Yrotation Zrotation
											JOINT LeftHandIndex2
											{
												OFFSET 8.792900 0.000000 0.000000
												CHANNELS 3 Xrotation Yrotation Zrotation
												JOINT LeftHandIndex3
												{
													OFFSET 10.075203 0.000000 0.000000
													CHANNELS 3 Xrotation Yrotation Zrotation
													End Site
													{
														OFFSET 0.000000 0.000000 0.000000
													}
												}
											}
										}
										JOINT LeftHandMiddle1
										{
											OFFSET 25.764404 0.000000 0.000000
											CHANNELS 3 Xrotation Yrotation Zrotation
											JOINT LeftHandMiddle2
											{
												OFFSET 9.393974 0.000000 0.000000
												CHANNELS 3 Xrotation Yrotation Zrotation
												JOINT LeftHandMiddle3
												{
													OFFSET 10.771950 0.000000 0.000000
													CHANNELS 3 Xrotation Yrotation Zrotation
													End Site
													{
														OFFSET 0.000000 0.000000 0.000000
													}
												}
											}
										}
										JOINT LeftHandRing1
										{
											OFFSET 24.660927 0.144547 -6.225808
											CHANNELS 3 Xrotation Yrotation Zrotation
											JOINT LeftHandRing2
											{
												OFFSET 9.393799 0.000000 0.000000
												CHANNELS 3 Xrotation Yrotation Zrotation
												JOINT LeftHandRing3
												{
													OFFSET 9.928497 0.000000 0.000000
													CHANNELS 3 Xrotation Yrotation Zrotation
													End Site
													{
														OFFSET 0.000000 0.000000 0.000000
													}
												}
											}
										}
										JOINT LeftHandPinky1
										{
											OFFSET 23.655350 0.125290 -12.815412
											CHANNELS 3 Xrotation Yrotation Zrotation
											JOINT LeftHandPinky2
											{
												OFFSET 8.425102 0.000000 0.000000
												CHANNELS 3 Xrotation Yrotation Zrotation
												JOINT LeftHandPinky3
												{
													OFFSET 8.147003 0.000000 0.000000
													CHANNELS 3 Xrotation Yrotation Zrotation
													End Site
													{
														OFFSET 0.000000 0.000000 0.000000
													}
												}
											}
										}
									}
								}
							}
						}
					}
					JOINT RightShoulder
					{
						OFFSET -3.249400 8.794197 -1.372250
						CHANNELS 3 Xrotation Yrotation Zrotation
						JOINT RightShoulder_split
						{
							OFFSET -3.249400 8.794197 -1.372250
							CHANNELS 3 Xrotation Yrotation Zrotation
							JOINT RightArm
							{
								OFFSET -11.953299 -2.279007 -0.146200
								CHANNELS 3 Xrotation Yrotation Zrotation
								JOINT RightForeArm
								{
									OFFSET -18.448900 0.000000 0.000000
									CHANNELS 3 Xrotation Yrotation Zrotation
									JOINT RightHand
									{
										OFFSET -29.527802 0.000000 0.000000
										CHANNELS 3 Xrotation Yrotation Zrotation
										JOINT RightHandThumb1
										{
											OFFSET -10.739754 -2.369614 9.225399
											CHANNELS 3 Xrotation Yrotation Zrotation
											JOINT RightHandThumb2
											{
												OFFSET -4.926170 -2.844131 2.844125
												CHANNELS 3 Xrotation Yrotation Zrotation
												JOINT RightHandThumb3
												{
													OFFSET -4.614891 -2.664413 2.664409
													CHANNELS 3 Xrotation Yrotation Zrotation
													JOINT RightHandThumb4
													{
														OFFSET -4.432465 -2.559082 2.559083
														CHANNELS 3 Xrotation Yrotation Zrotation
														End Site
														{
															OFFSET 0.000000 0.000000 0.000000
														}
													}
												}
											}
										}
										JOINT RightHandIndex1
										{
											OFFSET -26.467674 0.187653 6.405298
											CHANNELS 3 Xrotation Yrotation Zrotation
											JOINT RightHandIndex2
											{
												OFFSET -8.792900 0.000000 0.000000
												CHANNELS 3 Xrotation Yrotation Zrotation
												JOINT RightHandIndex3
												{
													OFFSET -10.075203 0.000000 0.000000
													CHANNELS 3 Xrotation Yrotation Zrotation
													End Site
													{
														OFFSET 0.000000 0.000000 0.000000
													}
												}
											}
										}
										JOINT RightHandMiddle1
										{
											OFFSET -25.764404 0.000000 0.000000
											CHANNELS 3 Xrotation Yrotation Zrotation
											JOINT RightHandMiddle2
											{
												OFFSET -9.393974 0.000000 0.000000
												CHANNELS 3 Xrotation Yrotation Zrotation
												JOINT RightHandMiddle3
												{
													OFFSET -10.771950 0.000000 0.000000
													CHANNELS 3 Xrotation Yrotation Zrotation
													End Site
													{
														OFFSET 0.000000 0.000000 0.000000
													}
												}
											}
										}
										JOINT RightHandRing1
										{
											OFFSET -24.660927 0.144547 -6.225808
											CHANNELS 3 Xrotation Yrotation Zrotation
											JOINT RightHandRing2
											{
												OFFSET -9.393799 0.000000 0.000000
												CHANNELS 3 Xrotation Yrotation Zrotation
												JOINT RightHandRing3
												{
													OFFSET -9.928497 0.000000 0.000000
													CHANNELS 3 Xrotation Yrotation Zrotation
													End Site
													{
														OFFSET 0.000000 0.000000 0.000000
													}
												}
											}
										}
										JOINT RightHandPinky1
										{
											OFFSET -23.655350 0.125290 -12.815412
											CHANNELS 3 Xrotation Yrotation Zrotation
											JOINT RightHandPinky2
											{
												OFFSET -8.425102 0.000000 0.000000
												CHANNELS 3 Xrotation Yrotation Zrotation
												JOINT RightHandPinky3
												{
													OFFSET -8.147003 0.000000 0.000000
													CHANNELS 3 Xrotation Yrotation Zrotation
													End Site
													{
														OFFSET 0.000000 0.000000 0.000000
													}
												}
											}
										}
									}
								}
							}
						}
					}
				}
			}
		}
	}
	JOINT LeftUpLeg
	{
		OFFSET 11.394100 -6.187798 -0.413800
		CHANNELS 3 Xrotation Yrotation Zrotation
		JOINT LeftLeg
		{
			OFFSET 0.430247 -32.302673 3.732800
			CHANNELS 3 Xrotation Yrotation Zrotation
			JOINT LeftFoot
			{
				OFFSET -0.430247 -48.264931 -6.423300
				CHANNELS 3 Xrotation Yrotation Zrotation
				JOINT LeftToeBase
				{
					OFFSET 4.230900 -16.068199 23.438400
					CHANNELS 3 Xrotation Yrotation Zrotation
					JOINT LeftToe_End
					{
						OFFSET 4.510700 0.695400 19.974600
						CHANNELS 3 Xrotation Yrotation Zrotation
						End Site
						{
							OFFSET 0.000000 0.000000 0.000000
						}
					}
				}
			}
		}
	}
	JOINT RightUpLeg
	{
		OFFSET -11.333700 -6.187798 -0.413800
		CHANNELS 3 Xrotation Yrotation Zrotation
		JOINT RightLeg
		{
			OFFSET -0.430392 -32.302628 3.733000
			CHANNELS 3 Xrotation Yrotation Zrotation
			JOINT RightFoot
			{
				OFFSET 0.430392 -48.264973 -6.423500
				CHANNELS 3 Xrotation Yrotation Zrotation
				JOINT RightToeBase
				{
					OFFSET -4.230900 -16.068199 23.438400
					CHANNELS 3 Xrotation Yrotation Zrotation
					JOINT RightToe_End
					{
						OFFSET -4.510700 0.695400 19.974600
						CHANNELS 3 Xrotation Yrotation Zrotation
						End Site
						{
							OFFSET 0.000000 0.000000 0.000000
						}
					}
				}
			}
		}
	}
}
MOTION
Frames: 4
Frame Time: 0.016667
-0.301205 89.715714 0.171824 3.020389 -58.275119 6.520085 11.191478 0.139513 -2.738801 8.434584 0.027679 -5.592321 0.000000 0.000000 0.000000 8.457038 0.027895 -5.591863 -21.556290 25.063284 12.062620 -0.293596 25.465684 -3.208706 0.000000 0.000000 0.000001 -6.221639 -11.503825 -4.023768 0.000000 0.000000 0.000000 -23.061623 9.569245 -36.639819 0.046359 -43.170955 -0.011007 22.743640 -5.684973 15.979062 -1.064223 -7.954960 8.490065 2.373381 19.986165 -2.038307 0.808203 1.237760 2.631731 0.000001 0.000000 0.000002 13.340867 -1.006695 10.682272 -0.167562 0.303417 -31.105648 0.000001 0.000001 0.000002 8.495446 -0.329583 -0.915307 0.231500 0.661209 -29.901872 -0.000001 0.000002 -0.000001 6.111742 3.150920 -16.210928 0.047079 0.322437 -30.125492 0.000000 0.000000 0.000000 -5.636032 7.709859 -13.878629 0.224355 0.276579 -46.588369 0.000000 0.000002 0.000000 -5.488236 10.658251 2.466467 0.000000 0.000000 0.000000 -41.473885 -26.755574 30.079036 24.955792 111.862905 -23.308844 -8.702462 12.423102 -9.801935 0.264991 10.061103 -10.888522 1.383787 -17.412864 3.016267 3.342372 -13.253739 -8.262756 0.000001 0.000004 -0.000001 19.443592 11.174466 -13.340190 -0.118672 -0.322709 18.035628 -0.000001 -0.000000 -0.000005 4.320462 2.436949 -4.811743 0.349134 -0.461221 26.890351 0.000002 0.000000 0.000001 -7.005655 -10.695150 5.719825 0.111914 -0.089192 26.155873 -0.000002 0.000000 0.000000 -19.433574 -20.238204 5.987843 0.223796 -0.085799 36.844574 -0.000003 -0.000000 0.000001 -38.837125 8.057320 26.427587 42.580205 -7.215291 -9.677529 -5.193152 -2.782152 -10.042872 -0.327600 1.238384 0.837244 -0.000000 -0.000005 -0.000000 -36.666662 -6.170713 -25.574644 47.502217 1.669009 -7.598027 -14.418900 3.655649 21.027803 -0.322787 -0.997384 -0.837162 0.000000 -0.000002 -0.000000 
-0.636259 89.781769 0.231853 4.779699 -58.881032 8.677453 10.572448 0.103852 -3.038321 7.278664 0.995582 -6.029102 0.000000 0.000000 0.000000 7.868299 0.668165 -5.886735 -19.835344 24.498193 8.157677 -2.779484 23.606790 2.798136 0.000000 -0.000000 -0.000001 -6.438884 -13.164602 -4.289229 0.000000 0.000000 0.000000 -20.844397 7.515338 -36.011346 -0.375296 -40.249034 -0.284906 20.711476 -9.083177 15.351152 -1.038629 -7.822567 8.542159 2.457010 20.247039 -1.940288 0.878729 1.498674 2.761551 0.000001 0.000000 0.000001 13.341813 -1.007640 10.381766 -0.167202 0.303669 -31.406248 0.000001 -0.000004 -0.000001 8.490657 -0.326629 -1.215856 0.233150 0.662217 -30.202458 -0.000001 -0.000001 0.000001 6.108701 3.154426 -16.511149 0.047239 0.324463 -30.426085 -0.000001 -0.000002 -0.000000 -5.637295 7.711624 -14.177653 0.225516 0.277501 -46.888975 0.000000 -0.000000 0.000000 -5.541684 9.386657 2.275661 0.000000 0.000000 0.000000 -42.475529 -27.793997 27.164166 22.803358 114.466239 -20.890173 -4.795840 10.170869 -11.609670 0.377271 9.088733 -11.243417 1.701224 -18.294573 2.663700 3.474370 -14.181409 -8.671792 -0.000002 -0.000002 0.000002 19.445018 11.175367 -12.309054 -0.117718 -0.323591 19.070491 0.000001 -0.000000 -0.000004 4.313801 2.427124 -3.776346 0.354724 -0.465001 27.925133 0.000001 -0.000006 -0.000002 -6.995289 -10.694685 6.754735 0.111838 -0.096132 27.190706 -0.000000 0.000000 0.000001 -19.413722 -20.226888 7.025166 0.227310 -0.089624 37.879375 0.000003 0.000001 0.000003 -38.744767 8.409901 25.766090 42.190601 -6.370878 -9.477768 -5.425826 -2.600669 -10.476062 -0.346645 1.238187 0.866908 -0.000000 -0.000000 0.000000 -37.601165 -5.304632 -25.760076 47.661268 1.733803 -7.584197 -14.543433 3.741751 20.995786 -0.716209 -0.900162 -0.703386 -0.000000 -0.000000 0.000000 
-1.367766 89.989326 0.401969 6.522614 -60.103923 10.744822 9.970851 0.068266 -3.324828 5.412858 1.778451 -6.941523 0.000000 0.000000 0.000000 6.233833 0.975662 -6.719546 -17.015547 23.940361 3.257986 -3.784288 21.629761 8.240862 -0.000000 0.000000 0.000000 -6.702465 -14.957877 -4.571849 0.000000 0.000000 0.000000 -18.021912 7.338807 -35.052555 -0.477857 -38.363315 -0.338788 19.213298 -11.154190 13.927265 -0.979500 -7.455873 8.678434 2.699607 20.954264 -1.668314 1.051490 2.224721 3.105774 0.000000 -0.000000 0.000001 13.344379 -1.010316 9.557771 -0.166131 0.304217 -32.230461 0.000000 0.000000 0.000004 8.482573 -0.318393 -2.040060 0.237677 0.664822 -31.026705 0.000002 -0.000002 -0.000001 6.100513 3.163998 -17.334399 0.047637 0.330017 -31.250294 -0.000001 -0.000001 0.000000 -5.619235 7.707119 -15.003460 0.228769 0.280015 -47.713188 -0.000000 0.000000 -0.000000 -5.596371 8.117643 2.079304 0.000000 0.000000 0.000000 -42.075342 -29.071140 25.529884 21.515775 116.635698 -19.361491 -0.202627 8.375947 -12.996913 0.500866 7.974832 -11.648256 2.059876 -19.306430 2.263678 3.617938 -15.244883 -9.140291 0.000001 -0.000000 -0.000001 19.446609 11.176478 -11.126329 -0.116625 -0.324515 20.255870 -0.000002 -0.000001 0.000001 4.304647 2.415555 -2.590496 0.361299 -0.469191 29.110539 -0.000002 -0.000002 -0.000000 -6.989933 -10.702562 7.938612 0.111978 -0.104140 28.376028 -0.000004 -0.000003 -0.000001 -19.401460 -20.220572 8.211980 0.231357 -0.093848 39.064792 -0.000002 0.000000 0.000001 -37.792427 8.803847 25.243020 41.555745 -5.151143 -9.132981 -6.002659 -2.154668 -11.303848 -0.366951 1.237911 0.841873 0.000000 0.000001 -0.000000 -38.016792 -4.432634 -25.597608 47.458528 1.956051 -7.500255 -14.784312 3.984456 20.839382 -1.699996 -0.657363 -0.366451 -0.000000 0.000001 0.000000 
-2.431938 90.310661 0.630422 7.685791 -61.325086 12.115738 9.401626 0.032874 -3.591511 3.106747 1.642278 -8.093144 0.000000 0.000000 0.000000 4.027167 1.010940 -7.900987 -14.200324 23.558227 -1.824859 -3.513580 20.287854 10.479021 0.000000 0.000000 -0.000000 -6.970882 -16.475489 -4.859277 0.000000 0.000000 0.000000 -16.573512 10.147414 -34.139468 -0.206037 -37.784682 -0.168388 18.782569 -9.426712 9.926439 -0.892356 -6.907662 8.881336 3.057555 22.012759 -1.265166 1.301776 3.311233 3.616890 0.000000 -0.000000 0.000002 13.348088 -1.014343 8.326599 -0.164567 0.305134 -33.462019 -0.000000 0.000003 -0.000001 8.470788 -0.305785 -3.271495 0.244489 0.668650 -32.258277 -0.000002 -0.000000 0.000001 6.099455 3.178697 -18.565238 0.052129 0.338264 -32.481788 -0.000000 0.000002 0.000000 -5.597881 7.702252 -16.236948 0.233580 0.283733 -48.944726 -0.000000 0.000001 -0.000001 -5.673094 6.670779 1.984884 0.000000 0.000000 0.000000 -39.956532 -30.758483 25.815269 19.616194 120.069603 -17.091345 4.611837 6.349239 -13.813234 0.623026 6.825565 -12.064240 2.424487 -20.352709 1.854915 3.757505 -16.342906 -9.623862 0.000001 0.000000 -0.000001 19.448252 11.177661 -9.904337 -0.115463 -0.325451 21.478841 -0.000000 0.000000 -0.000003 4.293698 2.403185 -1.367009 0.368095 -0.473344 30.333522 -0.000001 0.000001 -0.000000 -6.994982 -10.712248 9.159836 0.112250 -0.112078 29.599018 -0.000000 -0.000000 -0.000001 -19.401347 -20.222658 9.433961 0.235615 -0.098210 40.287768 0.000001 0.000002 0.000000 -36.157963 9.333942 24.950165 40.556905 -4.238482 -8.742628 -6.661225 -1.590647 -12.219523 -0.374492 1.237845 0.838020 -0.000000 -0.000001 0.000000 -37.474103 -3.762873 -25.150307 46.881496 1.885499 -7.373120 -15.221471 4.255216 20.735119 -2.979494 -0.341859 0.076915 -0.000000 0.000000 0.000000 
